<svg width="500" height="144" viewBox="0 0 500 144" fill="none" xmlns="http://www.w3.org/2000/svg">
<path d="M0 72C0 32.2355 32.2355 0 72 0H428C467.765 0 500 32.2355 500 72V72C500 111.765 467.764 144 428 144H72C32.2355 144 0 111.765 0 72V72Z" fill="#D81E3F"/>
<path d="M70.352 54.4H73.712L73.952 54.64L87.344 87.76L87.104 88H83.552L83.312 87.76L79.712 78.976H64.352L60.8 87.76L60.56 88H57.008L56.768 87.76L70.112 54.64L70.352 54.4ZM72.032 59.488L65.84 75.28H78.272L72.032 59.488ZM92.4774 54.4H102.653C107.773 54.4 112.013 56.016 115.373 59.248C118.733 62.48 120.413 66.464 120.413 71.2C120.413 75.936 118.733 79.92 115.373 83.152C112.013 86.384 107.773 88 102.653 88H92.4774L92.2374 87.76V54.64L92.4774 54.4ZM95.9334 58.096V84.304H102.653C106.525 84.304 109.741 83.056 112.301 80.56C114.861 78.032 116.141 74.912 116.141 71.2C116.141 67.488 114.861 64.384 112.301 61.888C109.741 59.36 106.525 58.096 102.653 58.096H95.9334ZM137.29 54.4H140.65L140.89 54.64L154.282 87.76L154.042 88H150.49L150.25 87.76L146.65 78.976H131.29L127.738 87.76L127.498 88H123.946L123.706 87.76L137.049 54.64L137.29 54.4ZM138.97 59.488L132.778 75.28H145.21L138.97 59.488ZM157.493 54.4H160.709L160.949 54.64V72.448C160.949 76.32 161.941 79.36 163.925 81.568C165.909 83.744 168.453 84.832 171.557 84.832C174.693 84.832 177.253 83.744 179.237 81.568C181.221 79.36 182.213 76.32 182.213 72.448V54.64L182.453 54.4H185.669L185.909 54.64V73.12C185.909 77.92 184.565 81.728 181.877 84.544C179.189 87.328 175.749 88.72 171.557 88.72C167.365 88.72 163.925 87.328 161.237 84.544C158.581 81.728 157.253 77.92 157.253 73.12V54.64L157.493 54.4ZM222.944 61.024L222.704 61.264C219.92 58.8 216 57.568 210.944 57.568C206.944 57.568 203.6 58.896 200.912 61.552C198.256 64.176 196.928 67.392 196.928 71.2C196.928 75.072 198.288 78.32 201.008 80.944C203.76 83.536 207.152 84.832 211.184 84.832C214.416 84.832 217.264 84.112 219.728 82.672V73.312H212.144L211.904 73.072V69.808L212.144 69.568H223.184L223.424 69.808V84.88C219.936 87.44 215.856 88.72 211.184 88.72C206.032 88.72 201.664 87.04 198.08 83.68C194.496 80.288 192.704 76.128 192.704 71.2C192.704 66.368 194.464 62.24 197.984 58.816C201.504 55.392 205.824 53.68 210.944 53.68C216.192 53.68 220.192 54.72 222.944 56.8V61.024ZM261.523 88H253.977L250.977 80.1953H237.242L234.406 88H227.047L240.43 53.6406H247.766L261.523 88ZM248.75 74.4062L244.016 61.6562L239.375 74.4062H248.75ZM248.398 44.9688H251.609C251.422 47.0938 250.672 48.7656 249.359 49.9844C248.062 51.1875 246.375 51.7891 244.297 51.7891C242.219 51.7891 240.523 51.1875 239.211 49.9844C237.914 48.7656 237.172 47.0938 236.984 44.9688H240.195C240.305 46.0781 240.695 46.9219 241.367 47.5C242.039 48.0625 243.016 48.3438 244.297 48.3438C245.578 48.3438 246.555 48.0625 247.227 47.5C247.898 46.9219 248.289 46.0781 248.398 44.9688ZM277.484 88V53.6406H284.422V88H277.484ZM273.219 51.6719L278.141 44.7578H284.234L289.086 51.6719H283.789L281.07 48.1797L278.539 51.6719H273.219ZM291.931 54.4H295.339L295.819 54.64L316.651 82.096V54.64L316.891 54.4H320.107L320.347 54.64V87.76L320.107 88H316.699L316.219 87.76L295.387 60.304V87.76L295.147 88H291.931L291.691 87.76V54.64L291.931 54.4ZM368.89 61.504L368.65 61.744C365.258 58.96 361.498 57.568 357.37 57.568C353.626 57.568 350.426 58.896 347.77 61.552C345.146 64.208 343.834 67.424 343.834 71.2C343.834 74.976 345.146 78.192 347.77 80.848C350.426 83.504 353.626 84.832 357.37 84.832C361.498 84.832 365.258 83.44 368.65 80.656L368.89 80.896V85.12C365.562 87.52 361.722 88.72 357.37 88.72C352.474 88.72 348.282 87.008 344.794 83.584C341.338 80.128 339.61 76 339.61 71.2C339.61 66.4 341.338 62.288 344.794 58.864C348.282 55.408 352.474 53.68 357.37 53.68C361.722 53.68 365.562 54.88 368.89 57.28V61.504ZM378.638 58.816C382.126 55.392 386.318 53.68 391.214 53.68C396.11 53.68 400.286 55.392 403.742 58.816C407.23 62.24 408.974 66.368 408.974 71.2C408.974 76.032 407.23 80.16 403.742 83.584C400.286 87.008 396.11 88.72 391.214 88.72C386.318 88.72 382.126 87.008 378.638 83.584C375.182 80.16 373.454 76.032 373.454 71.2C373.454 66.368 375.182 62.24 378.638 58.816ZM400.718 61.552C398.094 58.896 394.926 57.568 391.214 57.568C387.502 57.568 384.318 58.896 381.662 61.552C379.006 64.208 377.678 67.424 377.678 71.2C377.678 74.976 379.006 78.192 381.662 80.848C384.318 83.504 387.502 84.832 391.214 84.832C394.926 84.832 398.094 83.504 400.718 80.848C403.374 78.192 404.702 74.976 404.702 71.2C404.702 67.424 403.374 64.208 400.718 61.552ZM413.328 76.8203L420.078 76.1641C420.484 78.4297 421.305 80.0938 422.539 81.1562C423.789 82.2188 425.469 82.75 427.578 82.75C429.812 82.75 431.492 82.2812 432.617 81.3438C433.758 80.3906 434.328 79.2812 434.328 78.0156C434.328 77.2031 434.086 76.5156 433.602 75.9531C433.133 75.375 432.305 74.875 431.117 74.4531C430.305 74.1719 428.453 73.6719 425.562 72.9531C421.844 72.0312 419.234 70.8984 417.734 69.5547C415.625 67.6641 414.57 65.3594 414.57 62.6406C414.57 60.8906 415.062 59.2578 416.047 57.7422C417.047 56.2109 418.477 55.0469 420.336 54.25C422.211 53.4531 424.469 53.0547 427.109 53.0547C431.422 53.0547 434.664 54 436.836 55.8906C439.023 57.7812 440.172 60.3047 440.281 63.4609L433.344 63.7656C433.047 62 432.406 60.7344 431.422 59.9688C430.453 59.1875 428.992 58.7969 427.039 58.7969C425.023 58.7969 423.445 59.2109 422.305 60.0391C421.57 60.5703 421.203 61.2812 421.203 62.1719C421.203 62.9844 421.547 63.6797 422.234 64.2578C423.109 64.9922 425.234 65.7578 428.609 66.5547C431.984 67.3516 434.477 68.1797 436.086 69.0391C437.711 69.8828 438.977 71.0469 439.883 72.5312C440.805 74 441.266 75.8203 441.266 77.9922C441.266 79.9609 440.719 81.8047 439.625 83.5234C438.531 85.2422 436.984 86.5234 434.984 87.3672C432.984 88.1953 430.492 88.6094 427.508 88.6094C423.164 88.6094 419.828 87.6094 417.5 85.6094C415.172 83.5938 413.781 80.6641 413.328 76.8203ZM424.039 90.6484H431.023V92.7578C431.023 94.5859 430.859 95.9766 430.531 96.9297C430.203 97.8828 429.57 98.7344 428.633 99.4844C427.711 100.234 426.445 100.828 424.836 101.266L423.969 98.1484C426.078 97.5703 427.133 96.5 427.133 94.9375H424.039V90.6484Z" fill="white"/>
<path d="M245.414 102.586C244.633 101.805 243.367 101.805 242.586 102.586L229.858 115.314C229.077 116.095 229.077 117.361 229.858 118.142C230.639 118.923 231.905 118.923 232.686 118.142L244 106.828L255.314 118.142C256.095 118.923 257.361 118.923 258.142 118.142C258.923 117.361 258.923 116.095 258.142 115.314L245.414 102.586ZM246 140V104H242V140H246Z" fill="#5100FF"/>
<path d="M281.414 102.586C280.633 101.805 279.367 101.805 278.586 102.586L265.858 115.314C265.077 116.095 265.077 117.361 265.858 118.142C266.639 118.923 267.905 118.923 268.686 118.142L280 106.828L291.314 118.142C292.095 118.923 293.361 118.923 294.142 118.142C294.923 117.361 294.923 116.095 294.142 115.314L281.414 102.586ZM282 140V104H278V140H282Z" fill="#5100FF"/>
<path d="M425.414 102.586C424.633 101.805 423.367 101.805 422.586 102.586L409.858 115.314C409.077 116.095 409.077 117.361 409.858 118.142C410.639 118.923 411.905 118.923 412.686 118.142L424 106.828L435.314 118.142C436.095 118.923 437.361 118.923 438.142 118.142C438.923 117.361 438.923 116.095 438.142 115.314L425.414 102.586ZM426 140V104H422V140H426Z" fill="#5100FF"/>
</svg>
