<svg width="512" height="512" viewBox="0 0 512 512" fill="none" xmlns="http://www.w3.org/2000/svg">
<mask id="path-1-inside-1_888_141" fill="white">
<path d="M255.49 21.4L489.58 254.98L255.49 488.56L21.91 254.98L255.49 21.4ZM271.81 305.98C271.81 297.48 273.51 290.68 276.91 285.58C280.31 280.48 287.62 273.68 298.84 265.18C308.7 257.36 316.86 250.05 323.32 243.25C329.78 236.11 334.54 228.46 337.6 220.3C341 212.14 342.7 202.45 342.7 191.23C342.7 168.45 334.88 150.77 319.24 138.19C303.6 125.61 282.18 119.32 254.98 119.32C245.46 119.32 235.6 120.51 225.4 122.89C215.54 124.93 206.02 127.82 196.84 131.56C187.66 135.3 179.16 139.38 171.34 143.8L191.74 188.17C202.96 182.39 213.84 177.63 224.38 173.89C234.92 170.15 244.78 168.28 253.96 168.28C264.5 168.28 272.32 170.66 277.42 175.42C282.52 180.18 285.07 186.47 285.07 194.29C285.07 203.81 282.86 211.63 278.44 217.75C274.02 223.53 266.2 230.84 254.98 239.68C242.4 249.88 233.22 259.74 227.44 269.26C222 278.44 219.28 289.66 219.28 302.92V317.71H271.81V305.98ZM212.65 386.05C212.65 397.95 216.05 406.45 222.85 411.55C229.65 416.99 237.98 419.71 247.84 419.71C257.02 419.71 265.01 416.99 271.81 411.55C278.95 406.45 282.52 397.95 282.52 386.05C282.52 373.47 278.95 364.63 271.81 359.53C265.01 354.43 257.02 351.88 247.84 351.88C237.98 351.88 229.65 354.43 222.85 359.53C216.05 364.63 212.65 373.47 212.65 386.05Z"/>
</mask>
<path d="M255.49 21.4L489.58 254.98L255.49 488.56L21.91 254.98L255.49 21.4ZM271.81 305.98C271.81 297.48 273.51 290.68 276.91 285.58C280.31 280.48 287.62 273.68 298.84 265.18C308.7 257.36 316.86 250.05 323.32 243.25C329.78 236.11 334.54 228.46 337.6 220.3C341 212.14 342.7 202.45 342.7 191.23C342.7 168.45 334.88 150.77 319.24 138.19C303.6 125.61 282.18 119.32 254.98 119.32C245.46 119.32 235.6 120.51 225.4 122.89C215.54 124.93 206.02 127.82 196.84 131.56C187.66 135.3 179.16 139.38 171.34 143.8L191.74 188.17C202.96 182.39 213.84 177.63 224.38 173.89C234.92 170.15 244.78 168.28 253.96 168.28C264.5 168.28 272.32 170.66 277.42 175.42C282.52 180.18 285.07 186.47 285.07 194.29C285.07 203.81 282.86 211.63 278.44 217.75C274.02 223.53 266.2 230.84 254.98 239.68C242.4 249.88 233.22 259.74 227.44 269.26C222 278.44 219.28 289.66 219.28 302.92V317.71H271.81V305.98ZM212.65 386.05C212.65 397.95 216.05 406.45 222.85 411.55C229.65 416.99 237.98 419.71 247.84 419.71C257.02 419.71 265.01 416.99 271.81 411.55C278.95 406.45 282.52 397.95 282.52 386.05C282.52 373.47 278.95 364.63 271.81 359.53C265.01 354.43 257.02 351.88 247.84 351.88C237.98 351.88 229.65 354.43 222.85 359.53C216.05 364.63 212.65 373.47 212.65 386.05Z" fill="#F2F2F2"/>
<path d="M255.49 21.4L261.141 15.737L255.484 10.0924L249.833 15.7431L255.49 21.4ZM489.58 254.98L495.231 260.643L500.906 254.98L495.231 249.317L489.58 254.98ZM255.49 488.56L249.833 494.217L255.484 499.868L261.141 494.223L255.49 488.56ZM21.91 254.98L16.2531 249.323L10.5963 254.98L16.2531 260.637L21.91 254.98ZM276.91 285.58L270.254 281.142L270.254 281.142L276.91 285.58ZM298.84 265.18L303.671 271.557L303.742 271.503L303.811 271.448L298.84 265.18ZM323.32 243.25L329.12 248.76L329.187 248.689L329.252 248.617L323.32 243.25ZM337.6 220.3L330.215 217.223L330.16 217.356L330.109 217.491L337.6 220.3ZM225.4 122.89L227.021 130.724L227.12 130.704L227.218 130.681L225.4 122.89ZM196.84 131.56L193.822 124.151L193.822 124.151L196.84 131.56ZM171.34 143.8L167.404 136.835L160.998 140.456L164.071 147.142L171.34 143.8ZM191.74 188.17L184.471 191.512L187.966 199.113L195.404 195.282L191.74 188.17ZM224.38 173.89L227.055 181.429L227.055 181.429L224.38 173.89ZM277.42 175.42L282.879 169.572L282.879 169.572L277.42 175.42ZM278.44 217.75L284.795 222.61L284.861 222.523L284.925 222.434L278.44 217.75ZM254.98 239.68L250.029 233.396L249.985 233.431L249.942 233.466L254.98 239.68ZM227.44 269.26L220.602 265.108L220.579 265.145L220.558 265.182L227.44 269.26ZM219.28 317.71H211.28V325.71H219.28V317.71ZM271.81 317.71V325.71H279.81V317.71H271.81ZM222.85 411.55L227.848 405.303L227.75 405.225L227.65 405.15L222.85 411.55ZM271.81 411.55L267.16 405.04L266.983 405.167L266.812 405.303L271.81 411.55ZM271.81 359.53L267.01 365.93L267.084 365.986L267.16 366.04L271.81 359.53ZM222.85 359.53L227.65 365.93L227.65 365.93L222.85 359.53ZM249.839 27.063L483.929 260.643L495.231 249.317L261.141 15.737L249.839 27.063ZM483.929 249.317L249.839 482.897L261.141 494.223L495.231 260.643L483.929 249.317ZM261.147 482.903L27.5669 249.323L16.2531 260.637L249.833 494.217L261.147 482.903ZM27.5669 260.637L261.147 27.0568L249.833 15.7431L16.2531 249.323L27.5669 260.637ZM279.81 305.98C279.81 298.469 281.321 293.386 283.566 290.018L270.254 281.142C265.699 287.974 263.81 296.491 263.81 305.98H279.81ZM283.566 290.018C286.151 286.141 292.48 280.035 303.671 271.557L294.009 258.803C282.76 267.325 274.469 274.819 270.254 281.142L283.566 290.018ZM303.811 271.448C313.873 263.468 322.332 255.906 329.12 248.76L317.52 237.74C311.388 244.194 303.527 251.252 293.869 258.912L303.811 271.448ZM329.252 248.617C336.317 240.809 341.642 232.306 345.091 223.109L330.109 217.491C327.438 224.614 323.243 231.411 317.388 237.883L329.252 248.617ZM344.985 223.377C348.884 214.018 350.7 203.233 350.7 191.23H334.7C334.7 201.667 333.116 210.262 330.215 217.223L344.985 223.377ZM350.7 191.23C350.7 166.396 342.052 146.272 324.254 131.956L314.226 144.424C327.708 155.268 334.7 170.504 334.7 191.23H350.7ZM324.254 131.956C306.761 117.886 283.359 111.32 254.98 111.32V127.32C281.001 127.32 300.439 133.334 314.226 144.424L324.254 131.956ZM254.98 111.32C244.79 111.32 234.319 112.594 223.582 115.099L227.218 130.681C236.881 128.426 246.13 127.32 254.98 127.32V111.32ZM223.779 115.056C213.449 117.193 203.461 120.224 193.822 124.151L199.858 138.969C208.579 135.416 217.631 132.667 227.021 130.724L223.779 115.056ZM193.822 124.151C184.358 128.007 175.548 132.232 167.404 136.835L175.276 150.764C182.772 146.528 190.962 142.593 199.858 138.969L193.822 124.151ZM164.071 147.142L184.471 191.512L199.009 184.828L178.609 140.458L164.071 147.142ZM195.404 195.282C206.344 189.646 216.894 185.035 227.055 181.429L221.705 166.351C210.786 170.225 199.576 175.134 188.076 181.058L195.404 195.282ZM227.055 181.429C236.918 177.93 245.866 176.28 253.96 176.28V160.28C243.694 160.28 232.922 162.37 221.705 166.351L227.055 181.429ZM253.96 176.28C263.483 176.28 268.945 178.453 271.961 181.268L282.879 169.572C275.695 162.867 265.517 160.28 253.96 160.28V176.28ZM271.961 181.268C275.236 184.324 277.07 188.391 277.07 194.29H293.07C293.07 184.549 289.804 176.036 282.879 169.572L271.961 181.268ZM277.07 194.29C277.07 202.571 275.159 208.629 271.955 213.066L284.925 222.434C290.561 214.631 293.07 205.049 293.07 194.29H277.07ZM272.085 212.89C268.295 217.846 261.125 224.654 250.029 233.396L259.931 245.964C271.275 237.026 279.745 229.214 284.795 222.61L272.085 212.89ZM249.942 233.466C236.943 244.006 227.022 254.533 220.602 265.108L234.278 273.412C239.418 264.947 247.857 255.754 260.018 245.894L249.942 233.466ZM220.558 265.182C214.228 275.863 211.28 288.57 211.28 302.92H227.28C227.28 290.75 229.772 281.017 234.322 273.338L220.558 265.182ZM211.28 302.92V317.71H227.28V302.92H211.28ZM219.28 325.71H271.81V309.71H219.28V325.71ZM279.81 317.71V305.98H263.81V317.71H279.81ZM204.65 386.05C204.65 399.395 208.509 410.794 218.05 417.95L227.65 405.15C223.591 402.106 220.65 396.505 220.65 386.05H204.65ZM217.852 417.797C226.257 424.521 236.417 427.71 247.84 427.71V411.71C239.543 411.71 233.043 409.459 227.848 405.303L217.852 417.797ZM247.84 427.71C258.731 427.71 268.508 424.436 276.808 417.797L266.812 405.303C261.512 409.544 255.309 411.71 247.84 411.71V427.71ZM276.46 418.06C286.402 410.958 290.52 399.533 290.52 386.05H274.52C274.52 396.367 271.498 401.942 267.16 405.04L276.46 418.06ZM290.52 386.05C290.52 372.079 286.515 360.202 276.46 353.02L267.16 366.04C271.385 369.058 274.52 374.861 274.52 386.05H290.52ZM276.61 353.13C268.312 346.907 258.604 343.88 247.84 343.88V359.88C255.436 359.88 261.708 361.953 267.01 365.93L276.61 353.13ZM247.84 343.88C236.537 343.88 226.449 346.831 218.05 353.13L227.65 365.93C232.851 362.029 239.423 359.88 247.84 359.88V343.88ZM218.05 353.13C208.405 360.364 204.65 372.212 204.65 386.05H220.65C220.65 374.728 223.695 368.896 227.65 365.93L218.05 353.13Z" fill="#1D1F21" mask="url(#path-1-inside-1_888_141)"/>
</svg>
