<svg width="100" height="4" viewBox="0 0 100 4" fill="none" xmlns="http://www.w3.org/2000/svg">
<rect opacity="0.15" width="100" height="4" rx="2" fill="black"/>
<path d="M45.5361 0C45.1956 0.588445 45 1.27125 45 2C45 2.72875 45.1956 3.41155 45.5361 4H18C16.8954 4 16 3.10457 16 2C16 0.895431 16.8954 0 18 0H45.5361ZM98 0C99.1046 0 100 0.895431 100 2C100 3.10457 99.1046 4 98 4H52.4639C52.8044 3.41155 53 2.72875 53 2C53 1.27125 52.8044 0.588445 52.4639 0H98Z" fill="url(#paint0_linear_105_79)"/>
<circle cx="49" cy="2" r="2" fill="white"/>
<defs>
<linearGradient id="paint0_linear_105_79" x1="19" y1="0" x2="99.19" y2="0" gradientUnits="userSpaceOnUse">
<stop stop-color="#CDCF5C"/>
<stop offset="1" stop-color="#EF8835"/>
</linearGradient>
</defs>
</svg>
